<svg id="Layer_1" data-name="Layer 1" xmlns="http://www.w3.org/2000/svg" xmlns:xlink="http://www.w3.org/1999/xlink" viewBox="0 0 120.14 126.87"><defs><style>.cls-1,.cls-138{fill:none;}.cls-1{clip-rule:evenodd;}.cls-2{clip-path:url(#clip-path);}.cls-3,.cls-4{fill:#ed1c24;}.cls-10,.cls-100,.cls-101,.cls-102,.cls-103,.cls-104,.cls-105,.cls-106,.cls-107,.cls-108,.cls-109,.cls-11,.cls-110,.cls-111,.cls-112,.cls-113,.cls-114,.cls-115,.cls-116,.cls-117,.cls-118,.cls-119,.cls-12,.cls-120,.cls-121,.cls-122,.cls-123,.cls-124,.cls-125,.cls-126,.cls-127,.cls-128,.cls-129,.cls-13,.cls-130,.cls-131,.cls-132,.cls-133,.cls-134,.cls-135,.cls-136,.cls-137,.cls-14,.cls-15,.cls-16,.cls-17,.cls-18,.cls-19,.cls-20,.cls-21,.cls-22,.cls-23,.cls-24,.cls-25,.cls-26,.cls-27,.cls-28,.cls-29,.cls-30,.cls-31,.cls-32,.cls-33,.cls-34,.cls-35,.cls-36,.cls-37,.cls-38,.cls-39,.cls-4,.cls-40,.cls-41,.cls-42,.cls-43,.cls-44,.cls-45,.cls-46,.cls-47,.cls-48,.cls-49,.cls-5,.cls-50,.cls-51,.cls-52,.cls-53,.cls-54,.cls-55,.cls-56,.cls-57,.cls-58,.cls-59,.cls-6,.cls-60,.cls-61,.cls-62,.cls-63,.cls-64,.cls-65,.cls-66,.cls-67,.cls-68,.cls-69,.cls-7,.cls-70,.cls-71,.cls-72,.cls-73,.cls-74,.cls-75,.cls-76,.cls-77,.cls-78,.cls-79,.cls-8,.cls-80,.cls-81,.cls-82,.cls-83,.cls-84,.cls-85,.cls-86,.cls-87,.cls-88,.cls-89,.cls-9,.cls-90,.cls-91,.cls-92,.cls-93,.cls-94,.cls-95,.cls-96,.cls-97,.cls-98,.cls-99{fill-rule:evenodd;}.cls-5{fill:#ed1d24;}.cls-6{fill:#ed1e24;}.cls-7{fill:#ed1f24;}.cls-8{fill:#ed2024;}.cls-9{fill:#ed2124;}.cls-10{fill:#ee2224;}.cls-11{fill:#ee2324;}.cls-12{fill:#ee2423;}.cls-13{fill:#ee2523;}.cls-14{fill:#ee2623;}.cls-15{fill:#ee2723;}.cls-16{fill:#ee2823;}.cls-17{fill:#ee2923;}.cls-18{fill:#ee2a23;}.cls-19{fill:#ee2b23;}.cls-20{fill:#ef2c23;}.cls-21{fill:#ef2d23;}.cls-22{fill:#ef2e23;}.cls-23{fill:#ef2f23;}.cls-24{fill:#ef3023;}.cls-25{fill:#ef3123;}.cls-26{fill:#ef3223;}.cls-27{fill:#ef3322;}.cls-28{fill:#ef3422;}.cls-29{fill:#ef3522;}.cls-30{fill:#f03622;}.cls-31{fill:#f03722;}.cls-32{fill:#f03822;}.cls-33{fill:#f03922;}.cls-34{fill:#f03a22;}.cls-35{fill:#f03b22;}.cls-36{fill:#f03c22;}.cls-37{fill:#f03d22;}.cls-38{fill:#f03e22;}.cls-39{fill:#f03f22;}.cls-40{fill:#f14022;}.cls-41{fill:#f14121;}.cls-42{fill:#f14221;}.cls-43{fill:#f14321;}.cls-44{fill:#f14421;}.cls-45{fill:#f14521;}.cls-46{fill:#f14621;}.cls-47{fill:#f14721;}.cls-48{fill:#f14821;}.cls-49{fill:#f14921;}.cls-50{fill:#f14a21;}.cls-51{fill:#f24b21;}.cls-52{fill:#f24c21;}.cls-53{fill:#f24d21;}.cls-54{fill:#f24e21;}.cls-55{fill:#f24f21;}.cls-56{fill:#f25020;}.cls-57{fill:#f25120;}.cls-58{fill:#f25220;}.cls-59{fill:#f25320;}.cls-60{fill:#f25420;}.cls-61{fill:#f35520;}.cls-62{fill:#f35620;}.cls-63{fill:#f35720;}.cls-64{fill:#f35820;}.cls-65{fill:#f35920;}.cls-66{fill:#f35a20;}.cls-67{fill:#f35b20;}.cls-68{fill:#f35c20;}.cls-69{fill:#f35d20;}.cls-70{fill:#f35e20;}.cls-71{fill:#f4601f;}.cls-72{fill:#f4611f;}.cls-73{fill:#f4621f;}.cls-74{fill:#f4631f;}.cls-75{fill:#f4641f;}.cls-76{fill:#f4651f;}.cls-77{fill:#f4661f;}.cls-78{fill:#f4671f;}.cls-79{fill:#f4681f;}.cls-80{fill:#f4691f;}.cls-81{fill:#f56a1f;}.cls-82{fill:#f56b1f;}.cls-83{fill:#f56c1f;}.cls-84{fill:#f56d1f;}.cls-85{fill:#f56e1f;}.cls-86{fill:#f56f1e;}.cls-87{fill:#f5701e;}.cls-88{fill:#f5711e;}.cls-89{fill:#f5721e;}.cls-90{fill:#f5731e;}.cls-91{fill:#f6741e;}.cls-92{fill:#f6751e;}.cls-93{fill:#f6761e;}.cls-94{fill:#f6771e;}.cls-95{fill:#f6781e;}.cls-96{fill:#f6791e;}.cls-97{fill:#f67a1e;}.cls-98{fill:#f67b1e;}.cls-99{fill:#f67c1e;}.cls-100{fill:#f67d1e;}.cls-101{fill:#f67e1d;}.cls-102{fill:#f77f1d;}.cls-103{fill:#f7801d;}.cls-104{fill:#f7811d;}.cls-105{fill:#f7821d;}.cls-106{fill:#f7831d;}.cls-107{fill:#f7841d;}.cls-108{fill:#f7851d;}.cls-109{fill:#f7861d;}.cls-110{fill:#f7871d;}.cls-111{fill:#f7881d;}.cls-112{fill:#f8891d;}.cls-113{fill:#f88a1d;}.cls-114{fill:#f88b1d;}.cls-115{fill:#f88c1c;}.cls-116{fill:#f88d1c;}.cls-117{fill:#f88e1c;}.cls-118{fill:#f88f1c;}.cls-119{fill:#f8901c;}.cls-120{fill:#f8911c;}.cls-121{fill:#f8921c;}.cls-122{fill:#f9931c;}.cls-123{fill:#f9941c;}.cls-124{fill:#f9951c;}.cls-125{fill:#f9961c;}.cls-126{fill:#f9971c;}.cls-127{fill:#f9981c;}.cls-128{fill:#f9991c;}.cls-129{fill:#f99a1c;}.cls-130{fill:#f99b1b;}.cls-131{fill:#f99c1b;}.cls-132{fill:#fa9d1b;}.cls-133{fill:#fa9e1b;}.cls-134{fill:#fa9f1b;}.cls-135{fill:#faa01b;}.cls-136{fill:#faa11b;}.cls-137{fill:#faa21b;}.cls-139{fill:#8b0800;}.cls-140{fill:#faf6ea;}.cls-141{fill:#fb9700;}.cls-142{fill:#fd9900;}.cls-143{fill:#ca8713;}</style><clipPath id="clip-path"><path class="cls-1" d="M67,113.64c26.74,13.08,43,13.23,41.88-40.87-1.14-38.94-3.68-62.65-57-30.34C19.19,62.62,0,76.57,52.08,105.8c0,0-2.84,5.43-10.58,10C76.88,113,80.42,87.71,60,52.93L73.27,45.8c.65,2.59,7.5,17.88,8.56,21.5C86.88,84.66,93.15,110.67,67,113.64Z"/></clipPath></defs><g class="cls-2"><rect class="cls-3" y="10.12" width="110.04" height="116.75"/><path class="cls-4" d="M111.31,8.85H22.58V1.9A76.08,76.08,0,0,0,19.78,9C6.54,48.07,26.16,90,63.59,102.7a69.91,69.91,0,0,0,55-4.48h-7.23Z"/><path class="cls-5" d="M111.31,8.85H23.07V2.12a75,75,0,0,0-2.78,7.06c-13.14,38.77,6.33,80.4,43.48,93a69.34,69.34,0,0,0,54.54-4.44h-7Z"/><path class="cls-6" d="M111.17,8.85H23.55V2.34q-1.53,3.41-2.76,7C7.75,47.82,27.08,89.14,64,101.64a68.9,68.9,0,0,0,54.13-4.41h-6.77V8.85Z"/><path class="cls-7" d="M111,8.85H24V2.57a72.71,72.71,0,0,0-2.74,7C8.36,47.7,27.54,88.71,64.13,101.11a68.3,68.3,0,0,0,53.71-4.37h-6.53V8.85Z"/><path class="cls-8" d="M110.81,8.85H24.52V2.79c-1,2.23-1.91,4.53-2.72,6.9C9,47.58,28,88.28,64.31,100.59a67.81,67.81,0,0,0,53.3-4.34h-6.3V8.85Z"/><path class="cls-9" d="M110.63,8.85H25V3q-1.48,3.32-2.69,6.85c-12.74,37.59,6.14,78,42.17,90.18a67.26,67.26,0,0,0,52.9-4.3h-6.07V8.85Z"/><path class="cls-10" d="M110.45,8.85h-85V3.24c-1,2.2-1.89,4.47-2.68,6.79-12.64,37.32,6.1,77.38,41.85,89.5a66.74,66.74,0,0,0,52.49-4.28h-5.84V8.85Z"/><path class="cls-11" d="M110.27,8.85H26V3.47a69.94,69.94,0,0,0-2.66,6.74C10.77,47.22,29.37,87,64.84,99a66.25,66.25,0,0,0,52.08-4.24h-5.61V8.85Z"/><path class="cls-12" d="M110.09,8.85H26.46V3.69Q25,6.93,23.83,10.38C11.38,47.1,29.82,86.54,65,98.47a65.68,65.68,0,0,0,51.67-4.21h-5.38V8.85Z"/><path class="cls-13" d="M109.91,8.85h-83V3.92c-1,2.14-1.84,4.35-2.61,6.63C12,47,30.29,86.11,65.2,97.94a65.15,65.15,0,0,0,51.26-4.17h-5.15V8.85Z"/><path class="cls-14" d="M109.74,8.85H27.43V4.14c-1,2.13-1.83,4.32-2.59,6.58-12.25,36.14,5.9,75,40.54,86.7a64.64,64.64,0,0,0,50.84-4.14h-4.91V8.85Z"/><path class="cls-15" d="M109.56,8.85H27.91V4.36c-.95,2.11-1.8,4.29-2.57,6.53-12.14,35.86,5.86,74.35,40.22,86A64.19,64.19,0,0,0,116,92.79h-4.68V8.85Z"/><path class="cls-16" d="M109.38,8.85h-81V4.59c-.94,2.09-1.8,4.25-2.55,6.48-12,35.56,5.81,73.74,39.89,85.29a63.62,63.62,0,0,0,50-4.07h-4.45V8.85Z"/><path class="cls-17" d="M109.2,8.85H28.89v-4q-1.41,3.12-2.54,6.43c-12,35.26,5.77,73.14,39.57,84.59a63.12,63.12,0,0,0,49.62-4h-4.23V8.85Z"/><path class="cls-18" d="M109,8.85H29.37V5c-.93,2.05-1.77,4.18-2.51,6.36C15,46.38,32.57,84,66.1,95.31a62.61,62.61,0,0,0,49.2-4h-4V8.85Z"/><path class="cls-19" d="M108.84,8.85h-79V5.26q-1.38,3.06-2.48,6.32C15.61,46.26,33,83.51,66.28,94.78a62,62,0,0,0,48.79-4h-3.76V8.85Z"/><path class="cls-20" d="M108.66,8.85H30.34V5.49q-1.38,3-2.47,6.26c-11.65,34.39,5.62,71.33,38.59,82.5a61.55,61.55,0,0,0,48.38-3.94h-3.53V8.85Z"/><path class="cls-21" d="M108.48,8.85H30.82V5.71c-.9,2-1.72,4.08-2.44,6.21C16.82,46,34,82.65,66.63,93.72a61,61,0,0,0,48-3.9h-3.3v-81Z"/><path class="cls-22" d="M108.3,8.85h-74V.16a67.07,67.07,0,0,0-5.37,11.93C17.43,45.9,34.41,82.22,66.81,93.2a60.56,60.56,0,0,0,47.57-3.88h-3.07V8.85Z"/><path class="cls-23" d="M108.12,8.85H34.71V.43a67.37,67.37,0,0,0-5.32,11.83C18,45.78,34.86,81.78,67,92.67a60,60,0,0,0,47.15-3.84h-2.83v-80Z"/><path class="cls-24" d="M107.94,8.85H35.18V.71a66,66,0,0,0-5.29,11.73c-11.25,33.22,5.44,68.91,37.28,79.7a59.46,59.46,0,0,0,46.75-3.81h-2.61V8.85Z"/><path class="cls-25" d="M107.76,8.85H35.64V1A66.19,66.19,0,0,0,30.4,12.61c-11.16,32.93,5.38,68.3,36.95,79a58.9,58.9,0,0,0,46.33-3.77h-2.37v-79Z"/><path class="cls-26" d="M107.59,8.85H36.09V1.26a64.91,64.91,0,0,0-5.18,11.52c-11.06,32.64,5.33,67.7,36.62,78.3a58.41,58.41,0,0,0,45.92-3.73h-2.14V8.85Z"/><path class="cls-27" d="M107.41,8.85H36.55V1.53A65.59,65.59,0,0,0,31.41,13c-11,32.36,5.29,67.1,36.3,77.61a57.89,57.89,0,0,0,45.51-3.71h-1.91v-78Z"/><path class="cls-28" d="M107.23,8.85H37v-7a63.7,63.7,0,0,0-5.09,11.32C21.05,45.18,37.16,79.61,67.89,90A57.4,57.4,0,0,0,113,86.36h-1.68V8.85Z"/><path class="cls-29" d="M107.05,8.85H37.48V2.08a62.82,62.82,0,0,0-5,11.21C21.66,45.06,37.61,79.18,68.06,89.5a56.85,56.85,0,0,0,44.7-3.64h-1.45v-77Z"/><path class="cls-30" d="M106.87,8.85H37.93V2.35a63.12,63.12,0,0,0-5,11.11C22.26,44.94,38.07,78.75,68.24,89a56.32,56.32,0,0,0,44.29-3.6h-1.22V8.85Z"/><path class="cls-31" d="M106.69,8.85H38.39V2.63a62.23,62.23,0,0,0-5,11c-10.56,31.19,5.1,64.69,35,74.81a55.83,55.83,0,0,0,43.88-3.56h-1v-76Z"/><path class="cls-32" d="M106.51,8.85H38.85V2.9a61.58,61.58,0,0,0-4.91,10.91C23.47,44.7,39,77.88,68.6,87.91a55.24,55.24,0,0,0,43.46-3.53h-.75V8.85Z"/><path class="cls-33" d="M106.33,8.85h-67V3.18A60.35,60.35,0,0,0,34.45,14c-10.38,30.6,5,63.47,34.33,73.41a54.71,54.71,0,0,0,43.05-3.51h-.52v-75Z"/><path class="cls-34" d="M106.16,8.85H39.77V3.45A61.34,61.34,0,0,0,35,14.15C24.68,44.46,39.91,77,69,86.86a54.23,54.23,0,0,0,42.64-3.47h-.29V8.85Z"/><path class="cls-35" d="M106,8.85H40.23V3.72a60.18,60.18,0,0,0-4.77,10.6c-10.17,30,4.91,62.26,33.68,72a53.7,53.7,0,0,0,42.23-3.43h-.06V8.85Z"/><path class="cls-36" d="M105.8,8.85H40.69V4A59.66,59.66,0,0,0,36,14.49C25.89,44.22,40.82,76.15,69.32,85.8a53.12,53.12,0,0,0,41.82-3.4,57.66,57.66,0,0,0,9-5.83h-8.83V8.85Z"/><path class="cls-37" d="M105.62,8.85H41.15V4.27a58.87,58.87,0,0,0-4.68,10.39c-10,29.44,4.81,61.06,33,70.62a52.7,52.7,0,0,0,41.42-3.37,55.86,55.86,0,0,0,8.91-5.78h-8.51V8.85Z"/><path class="cls-38" d="M105.44,8.85H41.61V4.55A57.63,57.63,0,0,0,37,14.83C27.1,44,41.74,75.28,69.67,84.75a52.17,52.17,0,0,0,41-3.34,56.06,56.06,0,0,0,8.82-5.71h-8.19V8.85Z"/><path class="cls-39" d="M105.26,8.85H42.07v-4A57.63,57.63,0,0,0,37.49,15C27.7,43.86,42.2,74.85,69.85,84.22a51.65,51.65,0,0,0,40.6-3.3,54.73,54.73,0,0,0,8.73-5.66h-7.87V8.85Z"/><path class="cls-40" d="M105.08,8.85H42.53V5.1A57.14,57.14,0,0,0,38,15.18c-9.68,28.56,4.66,59.24,32,68.51a51.09,51.09,0,0,0,40.18-3.27,53.93,53.93,0,0,0,8.65-5.6h-7.55v-66Z"/><path class="cls-41" d="M104.91,8.85H43V5.37a56.36,56.36,0,0,0-4.5,10C28.92,43.62,43.12,74,70.21,83.17A50.56,50.56,0,0,0,110,79.93a53.48,53.48,0,0,0,8.56-5.54h-7.23V8.85Z"/><path class="cls-42" d="M104.73,8.85H43.45V5.64A55.93,55.93,0,0,0,39,15.52c-9.48,28,4.57,58,31.39,67.12a50,50,0,0,0,39.36-3.21A53.49,53.49,0,0,0,118.22,74h-6.91V8.85Z"/><path class="cls-43" d="M104.55,8.85H43.9V5.92a55.71,55.71,0,0,0-4.39,9.77C30.12,43.38,44,73.12,70.57,82.11a49.55,49.55,0,0,0,39-3.17,52.86,52.86,0,0,0,8.38-5.43h-6.59V8.85Z"/><path class="cls-44" d="M104.37,8.85h-60V6.19A55,55,0,0,0,40,15.86c-9.28,27.4,4.48,56.83,30.74,65.72a49,49,0,0,0,38.54-3.13,53,53,0,0,0,8.3-5.38h-6.28V8.85Z"/><path class="cls-45" d="M104.19,8.85H44.82V6.47A54.91,54.91,0,0,0,40.52,16c-9.19,27.1,4.43,56.21,30.4,65A48.51,48.51,0,0,0,109.06,78a50.66,50.66,0,0,0,8.2-5.32h-6V8.85Z"/><path class="cls-46" d="M104,8.85H45.29V6.74A52.36,52.36,0,0,0,41,16.21C31.93,43,45.4,71.82,71.1,80.53a48,48,0,0,0,37.73-3.07A52.15,52.15,0,0,0,117,72.2h-5.64V8.85Z"/><path class="cls-47" d="M103.83,8.85H45.74V7a52.54,52.54,0,0,0-4.21,9.36c-9,26.52,4.33,55,29.75,63.62a47.43,47.43,0,0,0,37.31-3,50.14,50.14,0,0,0,8-5.2h-5.32V8.85Z"/><path class="cls-48" d="M103.65,8.85H46.2V7.29A53.55,53.55,0,0,0,42,16.55C33.15,42.78,46.32,71,71.46,79.47a46.93,46.93,0,0,0,36.91-3,49.58,49.58,0,0,0,7.93-5.15h-5V8.85Z"/><path class="cls-49" d="M103.47,8.85H46.66V7.56a52.72,52.72,0,0,0-4.12,9.16C33.75,42.66,46.78,70.52,71.64,79a46.42,46.42,0,0,0,36.49-3A48.63,48.63,0,0,0,116,70.88h-4.68v-62Z"/><path class="cls-50" d="M103.3,8.85H52.67V0a50.73,50.73,0,0,0-9.62,16.89c-8.69,25.65,4.19,53.2,28.77,61.53a45.93,45.93,0,0,0,36.08-2.94,49.57,49.57,0,0,0,7.77-5h-4.36V8.85Z"/><path class="cls-51" d="M103.12,8.85H53.07V.36a50.16,50.16,0,0,0-9.52,16.7C35,42.42,47.69,69.65,72,77.89A45.36,45.36,0,0,0,107.67,75a48.48,48.48,0,0,0,7.68-5h-4V8.85Z"/><path class="cls-52" d="M102.94,8.85H53.46V.72a49.65,49.65,0,0,0-9.4,16.51c-8.5,25.07,4.09,52,28.12,60.13a44.83,44.83,0,0,0,35.26-2.87A47.8,47.8,0,0,0,115,69.57h-3.72V8.85Z"/><path class="cls-53" d="M102.76,8.85H53.86V1.09a48.86,48.86,0,0,0-9.29,16.32c-8.4,24.77,4,51.38,27.78,59.42A44.32,44.32,0,0,0,107.21,74a47.35,47.35,0,0,0,7.5-4.86h-3.4V8.85Z"/><path class="cls-54" d="M102.58,8.85H54.26V1.45a48.29,48.29,0,0,0-9.19,16.13c-8.3,24.48,4,50.77,27.46,58.73A43.83,43.83,0,0,0,107,73.5a46.66,46.66,0,0,0,7.41-4.8h-3.08V8.85Z"/><path class="cls-55" d="M102.4,8.85H54.65v-7a47.82,47.82,0,0,0-9.08,15.93c-8.19,24.19,4,50.17,27.14,58a43.31,43.31,0,0,0,34-2.77,46.28,46.28,0,0,0,7.32-4.75h-2.76V8.85Z"/><path class="cls-56" d="M102.22,8.85H55.05V2.18a47.5,47.5,0,0,0-9,15.74C38,41.82,50,67.49,72.89,75.25a42.78,42.78,0,0,0,33.63-2.74,45.83,45.83,0,0,0,13.54-10.74h-8.75V8.85Z"/><path class="cls-57" d="M102,8.85H55.44V2.54a46.88,46.88,0,0,0-8.85,15.55c-8,23.61,3.85,49,26.48,56.63A42.25,42.25,0,0,0,106.29,72a45.36,45.36,0,0,0,13.38-10.61h-8.36V8.85Z"/><path class="cls-58" d="M101.87,8.85h-46V2.9a46.21,46.21,0,0,0-8.75,15.36C39.19,41.58,50.9,66.62,73.25,74.2a41.74,41.74,0,0,0,32.8-2.67A44.76,44.76,0,0,0,119.27,61h-8V8.85Z"/><path class="cls-59" d="M101.69,8.85H56.24V3.27A45.35,45.35,0,0,0,47.6,18.44c-7.81,23,3.76,47.75,25.83,55.22A41.12,41.12,0,0,0,105.82,71a44.51,44.51,0,0,0,13.06-10.35h-7.57V8.85Z"/><path class="cls-60" d="M101.51,8.85H56.64V3.63a44.81,44.81,0,0,0-8.53,15c-7.71,22.74,3.71,47.16,25.5,54.54a40.68,40.68,0,0,0,32-2.6,44,44,0,0,0,12.89-10.22h-7.17V8.85Z"/><path class="cls-61" d="M101.33,8.85H57V4a44.29,44.29,0,0,0-8.42,14.78C41,41.22,52.28,65.32,73.79,72.61A40.11,40.11,0,0,0,105.36,70,43,43,0,0,0,118.08,60h-6.77V8.85Z"/><path class="cls-62" d="M101.15,8.85H57.43V4.36A43.72,43.72,0,0,0,49.11,19C41.61,41.1,52.73,64.89,74,72.09a39.66,39.66,0,0,0,31.16-2.54,42.65,42.65,0,0,0,12.56-10h-6.38V8.85Z"/><path class="cls-63" d="M101,8.85H57.82V4.72a43.28,43.28,0,0,0-8.2,14.4C42.21,41,53.19,64.45,74.15,71.55a39.05,39.05,0,0,0,30.75-2.5,42.1,42.1,0,0,0,12.39-9.82h-6V8.85Z"/><path class="cls-64" d="M100.79,8.85H58.22V5.09a42.47,42.47,0,0,0-8.09,14.2C42.82,40.86,53.65,64,74.33,71a38.61,38.61,0,0,0,30.34-2.47,41.3,41.3,0,0,0,12.22-9.7h-5.58v-50Z"/><path class="cls-65" d="M100.61,8.85h-42V5.45a42.34,42.34,0,0,0-8,14c-7.21,21.28,3.48,44.13,23.87,51a38,38,0,0,0,29.93-2.44A40.83,40.83,0,0,0,116.5,58.5h-5.19V8.85Z"/><path class="cls-66" d="M100.43,8.85H59v-3a41.68,41.68,0,0,0-7.87,13.83C44,40.62,54.57,63.16,74.68,70a37.5,37.5,0,0,0,29.52-2.4,40.28,40.28,0,0,0,11.9-9.43h-4.79V8.85Z"/><path class="cls-67" d="M100.25,8.85H59.41V6.18A40.72,40.72,0,0,0,51.65,19.8c-7,20.7,3.38,42.92,23.21,49.65A37.06,37.06,0,0,0,104,67.08a39.64,39.64,0,0,0,11.73-9.31h-4.39V8.85Z"/><path class="cls-68" d="M100.07,8.85H59.81V6.54A40.27,40.27,0,0,0,52.15,20C45.24,40.38,55.48,62.29,75,68.92a36.53,36.53,0,0,0,28.7-2.34,39.1,39.1,0,0,0,11.57-9.17h-4V8.85Z"/><path class="cls-69" d="M99.89,8.85H60.21V6.91a39.46,39.46,0,0,0-7.55,13.24c-6.82,20.11,3.28,41.71,22.56,48.24a36,36,0,0,0,28.29-2.3,38.59,38.59,0,0,0,11.4-9h-3.6V8.85Z"/><path class="cls-70" d="M99.72,8.85H60.6V7.26a39.28,39.28,0,0,0-7.44,13.06C46.45,40.14,56.4,61.43,75.4,67.86a35.43,35.43,0,0,0,27.88-2.27,38,38,0,0,0,11.24-8.91h-3.21V8.85Z"/><path class="cls-71" d="M99.54,8.85H61V7.63a38.69,38.69,0,0,0-7.32,12.86C47.05,40,56.86,61,75.58,67.34a35,35,0,0,0,27.47-2.24,37.53,37.53,0,0,0,11.07-8.78h-2.81V8.85Z"/><path class="cls-72" d="M99.36,8.85h-38V8a38.3,38.3,0,0,0-7.22,12.67c-6.52,19.24,3.14,39.9,21.58,46.15a34.41,34.41,0,0,0,27.06-2.21A36.9,36.9,0,0,0,113.72,56h-2.41V8.85Z"/><path class="cls-73" d="M99.18,8.85H61.79V8.36a37.48,37.48,0,0,0-7.11,12.47c-6.42,19,3.09,39.3,21.25,45.45a33.91,33.91,0,0,0,26.66-2.17,36.64,36.64,0,0,0,10.74-8.52h-2v-40H119a35,35,0,0,0-8-10.89V8.85Z"/><path class="cls-74" d="M99,8.85H72.76V.33A36.35,36.35,0,0,0,55.19,21c-6.33,18.65,3,38.68,20.92,44.74s37.5-4.15,43.82-22.81h-8.62V15.85h7.23A34,34,0,0,0,110.7,5.12V8.85Z"/><path class="cls-75" d="M98.82,8.85H73v-8a35.77,35.77,0,0,0-17.3,20.34c-6.22,18.37,3,38.09,20.6,44.05s36.91-4.09,43.13-22.45h-8.11V16.1h6.75a33.83,33.83,0,0,0-7.72-10.56V8.85Z"/><path class="cls-76" d="M98.64,8.85H73.22V1.32a35.2,35.2,0,0,0-17,20C50.07,39.42,59.15,58.82,76.47,64.7s36.32-4,42.45-22.1h-7.61V16.35h6.26A33.12,33.12,0,0,0,110,6V8.85Z"/><path class="cls-77" d="M98.47,8.85h-25v-7A34.6,34.6,0,0,0,56.7,21.52c-6,17.78,2.91,36.87,20,42.65s35.74-4,41.76-21.74h-7.1V16.6h5.78a32.49,32.49,0,0,0-7.47-10.22V8.85Z"/><path class="cls-78" d="M98.29,8.85H73.69V2.31A34.06,34.06,0,0,0,57.21,21.69c-5.93,17.49,2.86,36.27,19.62,42S112,59.75,117.91,42.26h-6.6V16.86h5.29A31.26,31.26,0,0,0,98.29.31Z"/><path class="cls-79" d="M98.11,8.85H73.92v-6A33.52,33.52,0,0,0,57.71,21.86C51.89,39.06,60.52,57.53,77,63.11s34.56-3.82,40.39-21h-6.09v-25h4.81A30.74,30.74,0,0,0,98.11.84Z"/><path class="cls-80" d="M97.93,8.85H74.15V3.3A32.91,32.91,0,0,0,58.22,22c-5.73,16.91,2.76,35.06,19,40.55s34-3.76,39.7-20.67h-5.58V17.36h4.32a30.25,30.25,0,0,0-17.7-16Z"/><path class="cls-81" d="M97.75,8.85H74.38V3.79A32.44,32.44,0,0,0,58.72,22.2c-5.63,16.62,2.72,34.46,18.64,39.86s33.4-3.7,39-20.31h-5.08V17.61h3.84A29.74,29.74,0,0,0,97.75,1.89Z"/><path class="cls-82" d="M97.57,8.85h-23V4.29A31.79,31.79,0,0,0,59.23,22.38C53.7,38.7,61.9,56.23,77.54,61.53s32.81-3.63,38.34-20h-4.57V17.86h3.36A29.22,29.22,0,0,0,97.57,2.42Z"/><path class="cls-83" d="M97.39,8.85H74.84V4.79a31.18,31.18,0,0,0-15.1,17.76c-5.43,16,2.62,33.25,18,38.45s32.22-3.57,37.66-19.6h-4.07V18.12h2.87A28.67,28.67,0,0,0,97.39,3Z"/><path class="cls-84" d="M97.21,8.85H75.07V5.28A30.62,30.62,0,0,0,60.25,22.72C54.91,38.46,62.82,55.36,77.9,60.47s31.64-3.5,37-19.24S112.3,8.59,97.21,3.47Z"/><path class="cls-85" d="M97,8.85H75.3V5.77A30.15,30.15,0,0,0,60.75,22.89c-5.24,15.45,2.52,32,17.33,37.06s31.05-3.44,36.28-18.89S111.84,9,97,4Z"/><path class="cls-86" d="M96.86,8.85H75.54V6.27A29.48,29.48,0,0,0,61.26,23.06c-5.14,15.16,2.47,31.44,17,36.36s30.46-3.38,35.6-18.53-2.48-31.44-17-36.36Z"/><path class="cls-87" d="M96.68,5.06C82.43.23,66.8,8.37,61.76,23.23s2.43,30.83,16.68,35.66,29.88-3.31,34.92-18.17S110.93,9.89,96.68,5.06Z"/><path class="cls-88" d="M96.5,5.58C82.53.85,67.21,8.83,62.27,23.4s2.38,30.23,16.35,35,29.29-3.24,34.23-17.82S110.47,10.32,96.5,5.58Z"/><path class="cls-89" d="M96.32,6.12C82.63,1.47,67.61,9.29,62.77,23.58s2.34,29.61,16,34.26,28.71-3.19,33.55-17.47S110,10.75,96.32,6.12Z"/><path class="cls-90" d="M96.14,6.64C82.73,2.1,68,9.76,63.28,23.75s2.28,29,15.69,33.56,28.12-3.12,32.87-17.11S109.55,11.19,96.14,6.64Z"/><path class="cls-91" d="M96,7.17C82.84,2.72,68.43,10.22,63.78,23.92S66,52.33,79.15,56.78,106.69,53.73,111.33,40,109.09,11.62,96,7.17Z"/><path class="cls-92" d="M95.78,7.7c-12.85-4.36-26.95,3-31.49,16.39s2.19,27.81,15,32.16,27-3,31.49-16.39S108.63,12.05,95.78,7.7Z"/><path class="cls-93" d="M95.6,8.23C83,4,69.24,11.15,64.8,24.26s2.14,27.2,14.71,31.46,26.36-2.92,30.81-16S108.18,12.49,95.6,8.23Z"/><path class="cls-94" d="M95.43,8.75C83.13,4.59,69.65,11.61,65.3,24.43S67.39,51,79.69,55.2s25.78-2.86,30.12-15.68S107.72,12.92,95.43,8.75Z"/><path class="cls-95" d="M95.25,9.28c-12-4.07-25.19,2.79-29.44,15.33s2,26,14.06,30.06,25.19-2.79,29.44-15.32S107.26,13.35,95.25,9.28Z"/><path class="cls-96" d="M95.07,9.81c-11.73-4-24.61,2.73-28.76,15s2,25.39,13.73,29.36,24.61-2.72,28.76-15S106.8,13.79,95.07,9.81Z"/><path class="cls-97" d="M94.89,10.34C83.44,6.45,70.87,13,66.82,25s2,24.78,13.4,28.66S104.24,51,108.3,39,106.35,14.22,94.89,10.34Z"/><path class="cls-98" d="M94.71,10.86c-11.17-3.78-23.43,2.6-27.38,14.26s1.9,24.18,13.07,28,23.44-2.6,27.39-14.26S105.88,14.65,94.71,10.86Z"/><path class="cls-99" d="M94.53,11.39c-10.89-3.69-22.85,2.53-26.7,13.9s1.86,23.57,12.75,27.27,22.85-2.53,26.7-13.9S105.43,15.08,94.53,11.39Z"/><path class="cls-100" d="M94.35,11.92c-10.61-3.6-22.26,2.46-26,13.54s1.8,23,12.42,26.57,22.26-2.47,26-13.54S105,15.52,94.35,11.92Z"/><path class="cls-101" d="M94.18,12.45C83.84,9,72.5,14.85,68.84,25.63S70.6,48,80.94,51.5s21.68-2.4,25.33-13.19S104.51,16,94.18,12.45Z"/><path class="cls-102" d="M94,13C83.94,9.57,72.91,15.31,69.35,25.8S71.06,47.56,81.12,51s21.09-2.33,24.64-12.82S104.05,16.38,94,13Z"/><path class="cls-103" d="M93.82,13.5C84,10.19,73.31,15.77,69.85,26S71.52,47.13,81.3,50.45s20.5-2.27,24-12.48S103.59,16.82,93.82,13.5Z"/><path class="cls-104" d="M93.64,14c-9.5-3.22-19.92,2.21-23.28,12.12S72,46.7,81.48,49.92s19.91-2.21,23.28-12.12S103.14,17.25,93.64,14Z"/><path class="cls-105" d="M93.46,14.56c-9.22-3.13-19.33,2.14-22.6,11.76s1.58,20,10.79,23.07,19.34-2.14,22.6-11.76S102.68,17.68,93.46,14.56Z"/><path class="cls-106" d="M93.28,15.09c-8.94-3-18.75,2.07-21.91,11.4S72.9,45.83,81.83,48.86s18.75-2.08,21.91-11.4S102.22,18.12,93.28,15.09Z"/><path class="cls-107" d="M93.1,15.61c-8.66-2.93-18.16,2-21.22,11.05S73.35,45.4,82,48.33s18.16-2,21.23-11S101.76,18.55,93.1,15.61Z"/><path class="cls-108" d="M92.92,16.14c-8.38-2.84-17.57,1.95-20.54,10.7s1.43,18.13,9.81,21,17.58-2,20.54-10.69S101.3,19,92.92,16.14Z"/><path class="cls-109" d="M92.75,16.67c-8.11-2.74-17,1.88-19.86,10.33s1.38,17.54,9.48,20.28,17-1.88,19.85-10.34S100.84,19.42,92.75,16.67Z"/><path class="cls-110" d="M92.57,17.2c-7.83-2.65-16.41,1.82-19.18,10s1.34,16.93,9.16,19.58,16.4-1.81,19.17-10S100.39,19.85,92.57,17.2Z"/><path class="cls-111" d="M92.39,17.72c-7.55-2.55-15.82,1.76-18.49,9.63s1.28,16.32,8.83,18.87,15.81-1.75,18.49-9.62S99.93,20.28,92.39,17.72Z"/><path class="cls-112" d="M92.21,18.25C85,15.79,77,19.94,74.4,27.52s1.25,15.71,8.51,18.18,15.23-1.69,17.8-9.27S99.47,20.71,92.21,18.25Z"/><path class="cls-113" d="M92,18.78c-7-2.37-14.65,1.62-17.12,8.91S76.1,42.8,83.08,45.17s14.65-1.62,17.12-8.91S99,21.15,92,18.78Z"/><path class="cls-114" d="M91.85,19.31C85.14,17,77.79,20.87,75.42,27.86s1.14,14.51,7.84,16.78A13.11,13.11,0,0,0,99.7,36.09C102.06,29.09,98.55,21.58,91.85,19.31Z"/><path class="cls-115" d="M91.67,19.83A12.57,12.57,0,0,0,75.92,28a12.3,12.3,0,1,0,23.27,7.89A12.56,12.56,0,0,0,91.67,19.83Z"/><path class="cls-116" d="M91.49,20.37a12,12,0,0,0-15.06,7.84,11.76,11.76,0,1,0,22.25,7.54A12,12,0,0,0,91.49,20.37Z"/><path class="cls-117" d="M91.31,20.89a11.46,11.46,0,0,0-14.37,7.48,11.22,11.22,0,1,0,21.24,7.2A11.47,11.47,0,0,0,91.31,20.89Z"/><path class="cls-118" d="M91.13,21.42a10.92,10.92,0,0,0-13.69,7.13,10.69,10.69,0,1,0,20.23,6.86A10.92,10.92,0,0,0,91.13,21.42Z"/><path class="cls-119" d="M91,22a10.36,10.36,0,0,0-13,6.77,10.16,10.16,0,1,0,19.22,6.51A10.37,10.37,0,0,0,91,22Z"/><path class="cls-120" d="M90.77,22.48a9.82,9.82,0,0,0-12.32,6.41,9.62,9.62,0,1,0,18.21,6.17A9.82,9.82,0,0,0,90.77,22.48Z"/><path class="cls-121" d="M90.6,23A9.29,9.29,0,0,0,79,29.06a9.09,9.09,0,1,0,17.2,5.83A9.28,9.28,0,0,0,90.6,23Z"/><path class="cls-122" d="M90.42,23.53a8.74,8.74,0,0,0-11,5.7,8.56,8.56,0,1,0,16.19,5.49A8.74,8.74,0,0,0,90.42,23.53Z"/><path class="cls-123" d="M90.24,24.06a8.36,8.36,0,1,0,4.9,10.49A8.19,8.19,0,0,0,90.24,24.06Z"/><path class="cls-124" d="M90.06,24.59a7.63,7.63,0,0,0-9.58,5,7.48,7.48,0,1,0,14.16,4.79A7.64,7.64,0,0,0,90.06,24.59Z"/><path class="cls-125" d="M89.88,25.11a7.25,7.25,0,1,0,4.25,9.09A7.1,7.1,0,0,0,89.88,25.11Z"/><path class="cls-126" d="M89.7,25.64A6.69,6.69,0,1,0,93.63,34,6.56,6.56,0,0,0,89.7,25.64Z"/><path class="cls-127" d="M89.52,26.17a6.13,6.13,0,1,0,3.6,7.69A6,6,0,0,0,89.52,26.17Z"/><path class="cls-128" d="M89.35,26.7a5.58,5.58,0,1,0,3.27,7A5.46,5.46,0,0,0,89.35,26.7Z"/><path class="cls-129" d="M89.17,27.22a5,5,0,1,0,2.94,6.3A4.93,4.93,0,0,0,89.17,27.22Z"/><path class="cls-130" d="M89,27.75a4.46,4.46,0,1,0,2.61,5.59A4.37,4.37,0,0,0,89,27.75Z"/><path class="cls-131" d="M88.81,28.28a3.9,3.9,0,1,0,2.29,4.9A3.81,3.81,0,0,0,88.81,28.28Z"/><path class="cls-132" d="M88.63,28.81a3.35,3.35,0,1,0,2,4.19A3.28,3.28,0,0,0,88.63,28.81Z"/><path class="cls-133" d="M88.45,29.34a2.79,2.79,0,1,0,1.63,3.49A2.72,2.72,0,0,0,88.45,29.34Z"/><path class="cls-134" d="M88.27,29.86a2.23,2.23,0,1,0,1.31,2.8A2.18,2.18,0,0,0,88.27,29.86Z"/><path class="cls-135" d="M88.09,30.39a1.67,1.67,0,1,0,1,2.1A1.64,1.64,0,0,0,88.09,30.39Z"/><path class="cls-136" d="M87.91,30.92a1.11,1.11,0,1,0,.66,1.4A1.09,1.09,0,0,0,87.91,30.92Z"/><path class="cls-137" d="M87.74,31.45a.56.56,0,1,0,.32.7A.55.55,0,0,0,87.74,31.45Z"/></g><path class="cls-138" d="M69.26,51.91,54.77,56.22,40.28,60.54"/><path class="cls-138" d="M32.86,35.65q14.51-4.3,29-8.64"/><path class="cls-138" d="M38.69,46.51c.18,0,.25-.26.44-.31"/><path class="cls-138" d="M53.2,33.23a10.07,10.07,0,0,1,1.21-.11c.15,0,.22,0,.24.17l.78,3.35c0,.17.09.34.13.51"/><path class="cls-138" d="M63.1,38.52l.77-.29c.13-.06.2,0,.26.11"/><path class="cls-138" d="M52.88,54.83l.3.76c.06.15.13.19.29.11l.91-.46c.69-.35,1.38-.71,2.08-1.05.5-.24,1-.51,1.49-.74.7-.32,1.37-.72,2.08-1.05.25-.11.26-.21.18-.44-.46-1.18-.9-2.36-1.35-3.55-.13-.36-.12-.36.24-.51l2.07-.9c1-.45,2.08-.92,3.12-1.39l1.9-.83"/><path class="cls-139" d="M62.75,37.13c.11.47.24.92.35,1.39.44,1.8.86,3.6,1.31,5.4.08.29,0,.39-.24.51-2,1-3.93,1.94-5.9,2.89-.21.11-.25.2-.17.42.41,1.2.79,2.4,1.19,3.59.05.14.1.25-.11.35-1.44.7-2.88,1.42-4.32,2.14a19.41,19.41,0,0,0-2,1,9.91,9.91,0,0,0-1.65.77c-.54.26-.53.27-.78-.29-.44-1-.91-2-1.36-2.94-.07-.15-.14-.13-.27-.08l-3.63,1.63c-.33.14-.65.28-1,.43a1.25,1.25,0,0,1-.57.1l-3.12-.15a.31.31,0,0,1-.33-.24c-.72-2.18-1.46-4.35-2.19-6.52l0-.19c.23-.28.37-.64.7-.84a2.8,2.8,0,0,0,.09.31l1,2.76L41.13,53c0,.08,0,.24.21.13.61-.39,1.24-.77,1.86-1.15l.08,0q2.36-1.41,4.7-2.83a.38.38,0,0,0,.22-.32c.06-.34.11-.68.19-1.09l1.21,2.8c.53,1.27,1.06,2.54,1.58,3.81,0,.12.11.14.22.08.35-.2.7-.38,1.05-.57l2.75-1.44c.44-.17.44-.17.31-.59l0-.14c-.35-1-.63-2-1-3l-.09-.28h0a.05.05,0,0,1,0,0c-.15-.46-.28-.93-.45-1.39-.09-.24,0-.33.19-.43l5.25-2.59c.14-.07.21-.13.14-.31-.42-1-.84-2.06-1.25-3.1-.27-.69-.56-1.38-.82-2.07-.06-.17-.14-.17-.28-.12L56,38.7a11.42,11.42,0,0,0-1.27.48c-1,.35-1.92.69-2.87,1.06-.23.09-.31,0-.39-.19-.62-2-1.26-4-1.9-6,0-.16-.11-.3-.17-.46,0-.33-.2-.63-.27-1s-.14-.24-.34-.13q-3,1.69-6,3.36c-.19.11-.22.18-.11.38,1.18,2.15,2.34,4.32,3.51,6.48.1.19.07.25-.11.34l-1.72.81-5,2.38c-.07,0-.15.15-.24,0l2.94-1.85,2.38-1.52c.2-.12.21-.2.12-.41-1.06-2.18-2.09-4.38-3.15-6.56-.09-.19-.06-.28.13-.38l7-3.94a.66.66,0,0,1,.41-.1l3.35.11a.3.3,0,0,1,.33.24,13.37,13.37,0,0,0,.56,1.44c0,.08,0,.16.08.24l1.16,3.16c.3.83.29.83,1.12.52l.34-.07,3.48-1a.72.72,0,0,1,.46,0l2.63.79A.34.34,0,0,1,62.75,37.13Z"/><path class="cls-140" d="M49.37,33.54a3.64,3.64,0,0,0-.87.05,1.3,1.3,0,0,0-.62.07l-.75.46c-.83.52-1.64,1.05-2.47,1.55-.21.12-.19.22-.12.38l2.67,6.4a.23.23,0,0,1-.1.34c-.56.37-1.12.74-1.67,1.13-.79.54-1.56,1.1-2.36,1.64S41.67,46.55,41,47c-.27.17-.23.31-.14.51.47,1.15.95,2.29,1.41,3.44a2.16,2.16,0,0,0,1,1c-.62.38-1.25.76-1.86,1.15-.18.11-.18-.05-.21-.13l-1.3-3.39-1-2.76a2.8,2.8,0,0,1-.09-.31c.18,0,.25-.26.44-.31.09.15.17,0,.24,0l5-2.38L46.05,43c.18-.09.21-.15.11-.34-1.17-2.16-2.33-4.33-3.51-6.48-.11-.2-.08-.27.11-.38q3-1.66,6-3.36c.2-.11.28-.09.34.13S49.32,33.21,49.37,33.54Z"/><path class="cls-141" d="M66.19,44.78l-1.9.83c-1,.47-2.08.94-3.12,1.39l-2.07.9c-.36.15-.37.15-.24.51.45,1.19.89,2.37,1.35,3.55.08.23.07.33-.18.44-.71.33-1.38.73-2.08,1.05-.51.23-1,.5-1.49.74-.7.34-1.39.7-2.08,1.05l-.91.46c-.16.08-.23,0-.29-.11l-.3-.76a19.41,19.41,0,0,1,2-1c1.44-.72,2.88-1.44,4.32-2.14.21-.1.16-.21.11-.35-.4-1.19-.78-2.39-1.19-3.59-.08-.22,0-.31.17-.42,2-1,3.93-1.93,5.9-2.89.24-.12.32-.22.24-.51-.45-1.8-.87-3.6-1.31-5.4l.77-.29c.13-.06.2,0,.26.11Z"/><path class="cls-141" d="M54.65,33.29l.78,3.35c0,.17.09.34.13.51-.83.31-.82.31-1.12-.52l-1.16-3.16c0-.08-.05-.16-.08-.24a10.07,10.07,0,0,1,1.21-.11C54.56,33.11,54.63,33.15,54.65,33.29Z"/><path class="cls-142" d="M59.49,43.55c.07.18,0,.24-.14.31L54.1,46.45c-.21.1-.28.19-.19.43.17.46.3.93.45,1.39a0,0,0,0,0,0,0l.09.28c.31,1,.59,2,.93,3,.09.3.22.51-.17.65,0,0,0,0,0,.05l-2.75,1.44L50.94,50c-.06-.14-.12-.2-.28-.11-.35.2-.7.38-1.06.57l-1.21-2.8c-.08.41-.13.75-.19,1.09a.38.38,0,0,1-.22.32q-2.34,1.43-4.7,2.83l-.08,0a2.16,2.16,0,0,1-1-1c-.46-1.15-.94-2.29-1.41-3.44-.09-.2-.13-.34.14-.51.72-.47,1.42-1,2.13-1.46s1.57-1.1,2.36-1.64c.55-.39,1.11-.76,1.67-1.13a.23.23,0,0,0,.1-.34l-2.67-6.4c-.07-.16-.09-.26.12-.38.83-.5,1.64-1,2.47-1.55l.75-.46a1.3,1.3,0,0,1,.62-.07,3.64,3.64,0,0,1,.87-.05c.06.16.12.3.17.46.64,2,1.28,4,1.9,6,.08.24.16.28.39.19,1-.37,1.91-.71,2.87-1.06l1.24-.38a15.3,15.3,0,0,1,.51,2.1c.07.28.2.31.4.18A5.88,5.88,0,0,1,58,40.63c.09,0,.2-.06.25-.18C58.65,41.49,59.07,42.52,59.49,43.55Z"/><path class="cls-140" d="M52.45,53.79c-.35.19-.7.37-1.05.57-.11.06-.17,0-.22-.08-.52-1.27-1-2.54-1.58-3.81.36-.19.71-.37,1.06-.57.16-.09.22,0,.28.11Z"/><path class="cls-140" d="M58.24,40.45c-.05.12-.16.14-.25.18a5.88,5.88,0,0,0-1.14.45c-.2.13-.33.1-.4-.18a15.3,15.3,0,0,0-.51-2.1l0-.1,1.17-.44c.14,0,.22,0,.28.12C57.68,39.07,58,39.76,58.24,40.45Z"/><path class="cls-143" d="M55.2,52.35s0-.05,0-.05c.39-.14.26-.35.17-.65-.34-1-.62-2-.93-3,.38,1,.66,2,1,3l0,.14C55.64,52.18,55.64,52.18,55.2,52.35Z"/><path class="cls-143" d="M56,38.7l0,.1-1.24.38A11.42,11.42,0,0,1,56,38.7Z"/><path class="cls-143" d="M54.38,48.31h0a0,0,0,0,1,0,0A.05.05,0,0,0,54.38,48.31Z"/></svg>